<svg width="19" height="19" viewBox="0 0 19 19" fill="none" xmlns="http://www.w3.org/2000/svg">
<path d="M19 9.49991C19 4.25324 14.7468 -1.85915e-07 9.50009 -4.15254e-07C4.25342 -6.44594e-07 -1.85915e-07 4.25324 -4.15254e-07 9.49991C-6.44594e-07 14.7466 4.25342 19 9.50009 19C14.7443 18.9941 18.9941 14.7443 19 9.49991ZM0.950113 9.49991C0.950113 4.77787 4.77805 0.949939 9.50009 0.949939C14.2221 0.949939 18.0501 4.77788 18.0501 9.49991C18.0501 14.222 14.2221 18.0499 9.50009 18.0499C4.78031 18.0445 0.955505 14.2197 0.950113 9.49991Z" fill="#AE5F00"/>
<path d="M13.1826 8.3876C13.3553 8.19 13.3352 7.88993 13.1377 7.7172C12.9401 7.54464 12.6401 7.56482 12.4673 7.76225L9.50009 11.1536L6.53268 7.76208C6.35995 7.56447 6.05989 7.54447 5.86246 7.71703C5.66485 7.88976 5.64467 8.18982 5.8174 8.38743L9.14245 12.1874C9.23256 12.2905 9.36302 12.3497 9.50009 12.3497C9.63716 12.3497 9.76745 12.2905 9.85773 12.1874L13.1826 8.3876Z" fill="#AE5F00"/>
</svg>
